<mxfile host="app.diagrams.net" modified="2020-11-25T12:51:02.254Z" agent="5.0 (Windows NT 6.1; Win64; x64) AppleWebKit/537.36 (KHTML, like Gecko) Chrome/86.0.4240.198 Safari/537.36" etag="ZECAc31AGhRqrSUpFzdm" version="13.10.0" type="github">
  <diagram id="3RPK-Q5Vkmhw3wam3qYE" name="第 1 页">
    <mxGraphModel dx="1422" dy="794" grid="0" gridSize="10" guides="1" tooltips="1" connect="1" arrows="1" fold="1" page="1" pageScale="1" pageWidth="827" pageHeight="1169" background="none" math="0" shadow="0">
      <root>
        <mxCell id="0" />
        <mxCell id="1" parent="0" />
        <mxCell id="48_SFCMGathIOX-qwge4-1" value="&lt;b&gt;观察者模式&lt;/b&gt;" style="text;html=1;align=center;verticalAlign=middle;resizable=0;points=[];autosize=1;" vertex="1" parent="1">
          <mxGeometry x="330" y="40" width="80" height="20" as="geometry" />
        </mxCell>
        <mxCell id="48_SFCMGathIOX-qwge4-2" value="Observable/Subject" style="swimlane;fontStyle=1;align=center;verticalAlign=top;childLayout=stackLayout;horizontal=1;startSize=26;horizontalStack=0;resizeParent=1;resizeParentMax=0;resizeLast=0;collapsible=1;marginBottom=0;" vertex="1" parent="1">
          <mxGeometry x="87" y="88" width="171" height="169" as="geometry" />
        </mxCell>
        <mxCell id="48_SFCMGathIOX-qwge4-3" value="+ ObserverList" style="text;strokeColor=none;fillColor=none;align=left;verticalAlign=top;spacingLeft=4;spacingRight=4;overflow=hidden;rotatable=0;points=[[0,0.5],[1,0.5]];portConstraint=eastwest;" vertex="1" parent="48_SFCMGathIOX-qwge4-2">
          <mxGeometry y="26" width="171" height="26" as="geometry" />
        </mxCell>
        <mxCell id="48_SFCMGathIOX-qwge4-4" value="" style="line;strokeWidth=1;fillColor=none;align=left;verticalAlign=middle;spacingTop=-1;spacingLeft=3;spacingRight=3;rotatable=0;labelPosition=right;points=[];portConstraint=eastwest;" vertex="1" parent="48_SFCMGathIOX-qwge4-2">
          <mxGeometry y="52" width="171" height="8" as="geometry" />
        </mxCell>
        <mxCell id="48_SFCMGathIOX-qwge4-5" value="+ attachObserver(Observer *)&#xa;+ detachObserver(Observer *)&#xa;+ notifyObservers()&#xa;   {&#xa;     for(o in ObserverList)&#xa;       o-&gt;updata();&#xa;   }" style="text;strokeColor=none;fillColor=none;align=left;verticalAlign=top;spacingLeft=4;spacingRight=4;overflow=hidden;rotatable=0;points=[[0,0.5],[1,0.5]];portConstraint=eastwest;" vertex="1" parent="48_SFCMGathIOX-qwge4-2">
          <mxGeometry y="60" width="171" height="109" as="geometry" />
        </mxCell>
        <mxCell id="48_SFCMGathIOX-qwge4-10" value="Observer" style="swimlane;fontStyle=1;align=center;verticalAlign=top;childLayout=stackLayout;horizontal=1;startSize=26;horizontalStack=0;resizeParent=1;resizeParentMax=0;resizeLast=0;collapsible=1;marginBottom=0;" vertex="1" parent="1">
          <mxGeometry x="481" y="82" width="118" height="61" as="geometry" />
        </mxCell>
        <mxCell id="48_SFCMGathIOX-qwge4-13" value="+ update()" style="text;strokeColor=none;fillColor=none;align=left;verticalAlign=top;spacingLeft=4;spacingRight=4;overflow=hidden;rotatable=0;points=[[0,0.5],[1,0.5]];portConstraint=eastwest;" vertex="1" parent="48_SFCMGathIOX-qwge4-10">
          <mxGeometry y="26" width="118" height="35" as="geometry" />
        </mxCell>
        <mxCell id="48_SFCMGathIOX-qwge4-14" value="Observer1" style="swimlane;fontStyle=1;align=center;verticalAlign=top;childLayout=stackLayout;horizontal=1;startSize=26;horizontalStack=0;resizeParent=1;resizeParentMax=0;resizeLast=0;collapsible=1;marginBottom=0;" vertex="1" parent="1">
          <mxGeometry x="306" y="212" width="146" height="61" as="geometry" />
        </mxCell>
        <mxCell id="48_SFCMGathIOX-qwge4-15" value="+ update()&#xa;+ observe(Observable *)" style="text;strokeColor=none;fillColor=none;align=left;verticalAlign=top;spacingLeft=4;spacingRight=4;overflow=hidden;rotatable=0;points=[[0,0.5],[1,0.5]];portConstraint=eastwest;" vertex="1" parent="48_SFCMGathIOX-qwge4-14">
          <mxGeometry y="26" width="146" height="35" as="geometry" />
        </mxCell>
        <mxCell id="48_SFCMGathIOX-qwge4-18" value="Observer2" style="swimlane;fontStyle=1;align=center;verticalAlign=top;childLayout=stackLayout;horizontal=1;startSize=26;horizontalStack=0;resizeParent=1;resizeParentMax=0;resizeLast=0;collapsible=1;marginBottom=0;" vertex="1" parent="1">
          <mxGeometry x="483" y="212" width="118" height="61" as="geometry" />
        </mxCell>
        <mxCell id="48_SFCMGathIOX-qwge4-19" value="+ update()" style="text;strokeColor=none;fillColor=none;align=left;verticalAlign=top;spacingLeft=4;spacingRight=4;overflow=hidden;rotatable=0;points=[[0,0.5],[1,0.5]];portConstraint=eastwest;" vertex="1" parent="48_SFCMGathIOX-qwge4-18">
          <mxGeometry y="26" width="118" height="35" as="geometry" />
        </mxCell>
        <mxCell id="48_SFCMGathIOX-qwge4-20" value="Observer3" style="swimlane;fontStyle=1;align=center;verticalAlign=top;childLayout=stackLayout;horizontal=1;startSize=26;horizontalStack=0;resizeParent=1;resizeParentMax=0;resizeLast=0;collapsible=1;marginBottom=0;" vertex="1" parent="1">
          <mxGeometry x="626" y="210" width="118" height="61" as="geometry" />
        </mxCell>
        <mxCell id="48_SFCMGathIOX-qwge4-21" value="+ update()" style="text;strokeColor=none;fillColor=none;align=left;verticalAlign=top;spacingLeft=4;spacingRight=4;overflow=hidden;rotatable=0;points=[[0,0.5],[1,0.5]];portConstraint=eastwest;" vertex="1" parent="48_SFCMGathIOX-qwge4-20">
          <mxGeometry y="26" width="118" height="35" as="geometry" />
        </mxCell>
        <mxCell id="48_SFCMGathIOX-qwge4-22" value="" style="endArrow=block;dashed=1;endFill=0;endSize=12;html=1;exitX=0.5;exitY=0;exitDx=0;exitDy=0;" edge="1" parent="1" source="48_SFCMGathIOX-qwge4-14">
          <mxGeometry width="160" relative="1" as="geometry">
            <mxPoint x="332" y="406" as="sourcePoint" />
            <mxPoint x="525" y="145" as="targetPoint" />
          </mxGeometry>
        </mxCell>
        <mxCell id="48_SFCMGathIOX-qwge4-23" value="" style="endArrow=block;dashed=1;endFill=0;endSize=12;html=1;" edge="1" parent="1" source="48_SFCMGathIOX-qwge4-18" target="48_SFCMGathIOX-qwge4-13">
          <mxGeometry width="160" relative="1" as="geometry">
            <mxPoint x="403" y="222" as="sourcePoint" />
            <mxPoint x="547" y="143" as="targetPoint" />
          </mxGeometry>
        </mxCell>
        <mxCell id="48_SFCMGathIOX-qwge4-24" value="" style="endArrow=block;dashed=1;endFill=0;endSize=12;html=1;exitX=0.5;exitY=0;exitDx=0;exitDy=0;" edge="1" parent="1" source="48_SFCMGathIOX-qwge4-20">
          <mxGeometry width="160" relative="1" as="geometry">
            <mxPoint x="413" y="232" as="sourcePoint" />
            <mxPoint x="560" y="146" as="targetPoint" />
          </mxGeometry>
        </mxCell>
        <mxCell id="48_SFCMGathIOX-qwge4-25" value="" style="endArrow=diamondThin;endFill=0;endSize=24;html=1;exitX=0;exitY=0.5;exitDx=0;exitDy=0;entryX=1;entryY=0.5;entryDx=0;entryDy=0;" edge="1" parent="1" source="48_SFCMGathIOX-qwge4-13" target="48_SFCMGathIOX-qwge4-3">
          <mxGeometry width="160" relative="1" as="geometry">
            <mxPoint x="332" y="406" as="sourcePoint" />
            <mxPoint x="492" y="406" as="targetPoint" />
          </mxGeometry>
        </mxCell>
        <mxCell id="48_SFCMGathIOX-qwge4-26" value="&lt;b&gt;发布-订阅模式&lt;/b&gt;" style="text;html=1;align=center;verticalAlign=middle;resizable=0;points=[];autosize=1;" vertex="1" parent="1">
          <mxGeometry x="387" y="562" width="86" height="18" as="geometry" />
        </mxCell>
        <mxCell id="48_SFCMGathIOX-qwge4-33" style="rounded=0;orthogonalLoop=1;jettySize=auto;html=1;entryX=0;entryY=0.5;entryDx=0;entryDy=0;" edge="1" parent="1" source="48_SFCMGathIOX-qwge4-27" target="48_SFCMGathIOX-qwge4-30">
          <mxGeometry relative="1" as="geometry" />
        </mxCell>
        <mxCell id="48_SFCMGathIOX-qwge4-27" value="Subject" style="ellipse;whiteSpace=wrap;html=1;" vertex="1" parent="1">
          <mxGeometry x="133" y="353" width="120" height="80" as="geometry" />
        </mxCell>
        <mxCell id="48_SFCMGathIOX-qwge4-28" value="Observer1" style="ellipse;whiteSpace=wrap;html=1;" vertex="1" parent="1">
          <mxGeometry x="358" y="325" width="90" height="51" as="geometry" />
        </mxCell>
        <mxCell id="48_SFCMGathIOX-qwge4-29" value="Observer2" style="ellipse;whiteSpace=wrap;html=1;" vertex="1" parent="1">
          <mxGeometry x="358" y="386" width="90" height="51" as="geometry" />
        </mxCell>
        <mxCell id="48_SFCMGathIOX-qwge4-30" value="Observer3" style="ellipse;whiteSpace=wrap;html=1;" vertex="1" parent="1">
          <mxGeometry x="358" y="446" width="90" height="51" as="geometry" />
        </mxCell>
        <mxCell id="48_SFCMGathIOX-qwge4-31" value="" style="endArrow=classic;html=1;exitX=1;exitY=0.35;exitDx=0;exitDy=0;exitPerimeter=0;entryX=0;entryY=0.5;entryDx=0;entryDy=0;" edge="1" parent="1" source="48_SFCMGathIOX-qwge4-27" target="48_SFCMGathIOX-qwge4-28">
          <mxGeometry width="50" height="50" relative="1" as="geometry">
            <mxPoint x="387" y="431" as="sourcePoint" />
            <mxPoint x="437" y="381" as="targetPoint" />
          </mxGeometry>
        </mxCell>
        <mxCell id="48_SFCMGathIOX-qwge4-32" value="" style="endArrow=classic;html=1;exitX=0.983;exitY=0.6;exitDx=0;exitDy=0;exitPerimeter=0;" edge="1" parent="1" source="48_SFCMGathIOX-qwge4-27" target="48_SFCMGathIOX-qwge4-29">
          <mxGeometry width="50" height="50" relative="1" as="geometry">
            <mxPoint x="387" y="431" as="sourcePoint" />
            <mxPoint x="437" y="381" as="targetPoint" />
          </mxGeometry>
        </mxCell>
        <mxCell id="48_SFCMGathIOX-qwge4-34" value="notify" style="text;html=1;strokeColor=none;fillColor=none;align=center;verticalAlign=middle;whiteSpace=wrap;rounded=0;" vertex="1" parent="1">
          <mxGeometry x="277" y="349" width="40" height="20" as="geometry" />
        </mxCell>
        <mxCell id="48_SFCMGathIOX-qwge4-35" value="notify" style="text;html=1;strokeColor=none;fillColor=none;align=center;verticalAlign=middle;whiteSpace=wrap;rounded=0;" vertex="1" parent="1">
          <mxGeometry x="286" y="383" width="40" height="20" as="geometry" />
        </mxCell>
        <mxCell id="48_SFCMGathIOX-qwge4-36" value="notify" style="text;html=1;strokeColor=none;fillColor=none;align=center;verticalAlign=middle;whiteSpace=wrap;rounded=0;" vertex="1" parent="1">
          <mxGeometry x="286" y="426" width="40" height="20" as="geometry" />
        </mxCell>
        <mxCell id="48_SFCMGathIOX-qwge4-65" value="" style="edgeStyle=none;rounded=0;orthogonalLoop=1;jettySize=auto;html=1;endArrow=classic;endFill=1;" edge="1" parent="1" source="48_SFCMGathIOX-qwge4-38" target="48_SFCMGathIOX-qwge4-51">
          <mxGeometry relative="1" as="geometry" />
        </mxCell>
        <mxCell id="48_SFCMGathIOX-qwge4-38" value="Publisher" style="ellipse;whiteSpace=wrap;html=1;" vertex="1" parent="1">
          <mxGeometry x="150" y="654.5" width="120" height="80" as="geometry" />
        </mxCell>
        <mxCell id="48_SFCMGathIOX-qwge4-39" value="Subscriber1" style="ellipse;whiteSpace=wrap;html=1;" vertex="1" parent="1">
          <mxGeometry x="608" y="608" width="90" height="51" as="geometry" />
        </mxCell>
        <mxCell id="48_SFCMGathIOX-qwge4-40" value="Subscriber2" style="ellipse;whiteSpace=wrap;html=1;" vertex="1" parent="1">
          <mxGeometry x="608" y="669" width="90" height="51" as="geometry" />
        </mxCell>
        <mxCell id="48_SFCMGathIOX-qwge4-41" value="Subscriber3" style="ellipse;whiteSpace=wrap;html=1;" vertex="1" parent="1">
          <mxGeometry x="608" y="729" width="90" height="51" as="geometry" />
        </mxCell>
        <mxCell id="48_SFCMGathIOX-qwge4-47" value="" style="ellipse;whiteSpace=wrap;html=1;aspect=fixed;dashed=1;" vertex="1" parent="1">
          <mxGeometry x="339" y="596" width="203" height="203" as="geometry" />
        </mxCell>
        <mxCell id="48_SFCMGathIOX-qwge4-48" value="经纪人Broker" style="text;html=1;align=center;verticalAlign=middle;resizable=0;points=[];autosize=1;fontColor=#FF3333;" vertex="1" parent="1">
          <mxGeometry x="291" y="615" width="81" height="18" as="geometry" />
        </mxCell>
        <mxCell id="48_SFCMGathIOX-qwge4-57" style="edgeStyle=none;rounded=0;orthogonalLoop=1;jettySize=auto;html=1;entryX=0.5;entryY=0;entryDx=0;entryDy=0;entryPerimeter=0;endArrow=none;endFill=0;" edge="1" parent="1" source="48_SFCMGathIOX-qwge4-49" target="48_SFCMGathIOX-qwge4-52">
          <mxGeometry relative="1" as="geometry" />
        </mxCell>
        <mxCell id="48_SFCMGathIOX-qwge4-59" style="edgeStyle=none;rounded=0;orthogonalLoop=1;jettySize=auto;html=1;entryX=0.5;entryY=0;entryDx=0;entryDy=0;entryPerimeter=0;endArrow=none;endFill=0;" edge="1" parent="1" source="48_SFCMGathIOX-qwge4-49" target="48_SFCMGathIOX-qwge4-53">
          <mxGeometry relative="1" as="geometry" />
        </mxCell>
        <mxCell id="48_SFCMGathIOX-qwge4-49" value="TopicA" style="rounded=1;whiteSpace=wrap;html=1;" vertex="1" parent="1">
          <mxGeometry x="393" y="637" width="86" height="31" as="geometry" />
        </mxCell>
        <mxCell id="48_SFCMGathIOX-qwge4-60" style="edgeStyle=none;rounded=0;orthogonalLoop=1;jettySize=auto;html=1;entryX=0.145;entryY=0;entryDx=0;entryDy=4.35;entryPerimeter=0;endArrow=none;endFill=0;" edge="1" parent="1" source="48_SFCMGathIOX-qwge4-50" target="48_SFCMGathIOX-qwge4-53">
          <mxGeometry relative="1" as="geometry" />
        </mxCell>
        <mxCell id="48_SFCMGathIOX-qwge4-61" style="edgeStyle=none;rounded=0;orthogonalLoop=1;jettySize=auto;html=1;entryX=0.5;entryY=0;entryDx=0;entryDy=0;entryPerimeter=0;endArrow=none;endFill=0;" edge="1" parent="1" source="48_SFCMGathIOX-qwge4-50" target="48_SFCMGathIOX-qwge4-54">
          <mxGeometry relative="1" as="geometry" />
        </mxCell>
        <mxCell id="48_SFCMGathIOX-qwge4-50" value="TopicB" style="rounded=1;whiteSpace=wrap;html=1;" vertex="1" parent="1">
          <mxGeometry x="393" y="709" width="87" height="31" as="geometry" />
        </mxCell>
        <mxCell id="48_SFCMGathIOX-qwge4-55" style="edgeStyle=none;rounded=0;orthogonalLoop=1;jettySize=auto;html=1;entryX=0;entryY=0.75;entryDx=0;entryDy=0;exitX=0.855;exitY=1;exitDx=0;exitDy=-4.35;exitPerimeter=0;" edge="1" parent="1" source="48_SFCMGathIOX-qwge4-51" target="48_SFCMGathIOX-qwge4-49">
          <mxGeometry relative="1" as="geometry" />
        </mxCell>
        <mxCell id="48_SFCMGathIOX-qwge4-56" style="edgeStyle=none;rounded=0;orthogonalLoop=1;jettySize=auto;html=1;entryX=0;entryY=0.5;entryDx=0;entryDy=0;exitX=0.145;exitY=1;exitDx=0;exitDy=-4.35;exitPerimeter=0;" edge="1" parent="1" source="48_SFCMGathIOX-qwge4-51" target="48_SFCMGathIOX-qwge4-50">
          <mxGeometry relative="1" as="geometry" />
        </mxCell>
        <mxCell id="48_SFCMGathIOX-qwge4-51" value="" style="shape=cylinder3;whiteSpace=wrap;html=1;boundedLbl=1;backgroundOutline=1;size=15;rotation=-90;" vertex="1" parent="1">
          <mxGeometry x="326" y="670.5" width="28" height="58.5" as="geometry" />
        </mxCell>
        <mxCell id="48_SFCMGathIOX-qwge4-62" value="" style="edgeStyle=none;rounded=0;orthogonalLoop=1;jettySize=auto;html=1;endArrow=classic;endFill=1;entryX=0;entryY=0.5;entryDx=0;entryDy=0;" edge="1" parent="1" source="48_SFCMGathIOX-qwge4-52" target="48_SFCMGathIOX-qwge4-39">
          <mxGeometry relative="1" as="geometry" />
        </mxCell>
        <mxCell id="48_SFCMGathIOX-qwge4-52" value="" style="shape=cylinder3;whiteSpace=wrap;html=1;boundedLbl=1;backgroundOutline=1;size=15;rotation=-90;" vertex="1" parent="1">
          <mxGeometry x="526" y="610.5" width="28" height="58.5" as="geometry" />
        </mxCell>
        <mxCell id="48_SFCMGathIOX-qwge4-63" value="" style="edgeStyle=none;rounded=0;orthogonalLoop=1;jettySize=auto;html=1;endArrow=classic;endFill=1;" edge="1" parent="1" source="48_SFCMGathIOX-qwge4-53" target="48_SFCMGathIOX-qwge4-40">
          <mxGeometry relative="1" as="geometry" />
        </mxCell>
        <mxCell id="48_SFCMGathIOX-qwge4-53" value="" style="shape=cylinder3;whiteSpace=wrap;html=1;boundedLbl=1;backgroundOutline=1;size=15;rotation=-90;" vertex="1" parent="1">
          <mxGeometry x="532" y="665.25" width="28" height="58.5" as="geometry" />
        </mxCell>
        <mxCell id="48_SFCMGathIOX-qwge4-64" value="" style="edgeStyle=none;rounded=0;orthogonalLoop=1;jettySize=auto;html=1;endArrow=classic;endFill=1;" edge="1" parent="1" source="48_SFCMGathIOX-qwge4-54" target="48_SFCMGathIOX-qwge4-41">
          <mxGeometry relative="1" as="geometry" />
        </mxCell>
        <mxCell id="48_SFCMGathIOX-qwge4-54" value="" style="shape=cylinder3;whiteSpace=wrap;html=1;boundedLbl=1;backgroundOutline=1;size=15;rotation=-90;" vertex="1" parent="1">
          <mxGeometry x="528" y="723.75" width="28" height="58.5" as="geometry" />
        </mxCell>
        <mxCell id="48_SFCMGathIOX-qwge4-66" value="&lt;div style=&quot;text-align: left&quot;&gt;&lt;span&gt;观察者模式，是松耦合的关系。多用于单个应用内部。&lt;/span&gt;&lt;/div&gt;&lt;div style=&quot;text-align: left&quot;&gt;&lt;br&gt;&lt;/div&gt;&lt;div style=&quot;text-align: left&quot;&gt;&lt;span&gt;发布订阅模式，不存在耦合。更多是一种跨应用的模式，比如消息中间件。&lt;/span&gt;&lt;/div&gt;" style="text;html=1;strokeColor=none;fillColor=none;align=center;verticalAlign=middle;whiteSpace=wrap;rounded=0;" vertex="1" parent="1">
          <mxGeometry x="523" y="446" width="211" height="104.5" as="geometry" />
        </mxCell>
      </root>
    </mxGraphModel>
  </diagram>
</mxfile>
